<svg width="44" height="42" viewBox="0 0 44 42" fill="none" xmlns="http://www.w3.org/2000/svg">
<path d="M36.4453 0.316406H7.51981C3.38046 0.316406 0.0390625 3.65807 0.0390625 7.79715V35.7252C0.0390625 38.7674 2.48286 41.2113 5.52512 41.2113H38.4404C41.4826 41.2113 43.9264 38.7675 43.9264 35.7252L43.9257 7.79715C43.9257 3.65807 40.5843 0.316406 36.445 0.316406H36.4453ZM7.51981 3.30888H36.4453C38.9389 3.30888 40.9336 5.30357 40.9336 7.79715V9.44291H3.03118V7.79715C3.03118 5.30357 5.02622 3.30888 7.51981 3.30888ZM38.4402 38.219H5.52494C4.12853 38.219 3.03136 37.1218 3.03136 35.7254V12.4354H40.9338V35.7254C40.9338 37.1218 39.8366 38.219 38.4402 38.219Z" fill="#1255DF"/>
<path d="M14.4029 17.9214L6.92217 23.9059C6.27373 24.4047 6.17424 25.352 6.67274 26.0005C6.72249 26.1003 6.82233 26.1501 6.92217 26.2499L14.4029 32.2344L16.2981 29.8905L10.2635 25.0529L16.2483 20.2654L14.4029 17.9214Z" fill="#1255DF"/>
<path d="M29.2132 17.9214L27.3184 20.2654L33.353 25.1029L27.3184 29.9404L29.2136 32.2844L36.6943 26.2999C37.3427 25.801 37.4422 24.8538 36.9437 24.2053C36.894 24.1055 36.7942 24.0557 36.6943 23.9559L29.2132 17.9214Z" fill="#1255DF"/>
<path d="M25.6059 15.1629L20.2875 35.9389L17.3887 35.1969L22.707 14.4209L25.6059 15.1629Z" fill="#1255DF"/>
</svg>
