<svg width="46" height="46" viewBox="0 0 46 46" fill="none" xmlns="http://www.w3.org/2000/svg">
<path d="M0.0241508 38.9568C0.0241508 42.529 2.89371 45.3987 6.46599 45.3987C9.45246 45.3987 11.9708 43.3489 12.6733 40.5382H32.9351C33.6377 43.349 36.1561 45.3987 39.1424 45.3987C42.7146 45.3987 45.5843 42.5291 45.5843 38.9568C45.5843 35.7948 43.3004 33.1593 40.3141 32.6323L40.3132 13.4246C43.2997 12.8976 45.5835 10.2625 45.5835 7.10004C45.5835 3.52787 42.7139 0.658203 39.1416 0.658203C36.1551 0.658203 33.6368 2.70802 32.9343 5.51871H12.731C12.0284 2.70792 9.5101 0.658203 6.52374 0.658203C2.95156 0.658203 0.0818938 3.52776 0.0818938 7.10004C0.0818938 10.2621 2.36575 12.8976 5.35211 13.4246V32.6909C2.30729 33.2183 0.0234375 35.8534 0.0234375 38.9571L0.0241508 38.9568ZM6.46557 43.056C4.18172 43.056 2.36646 41.2407 2.36646 38.9568C2.36646 36.673 4.18172 34.8577 6.46557 34.8577C8.74943 34.8577 10.5647 36.673 10.5647 38.9568C10.5647 41.2407 8.74943 43.056 6.46557 43.056ZM43.3586 38.9568C43.3586 41.2407 41.5433 43.056 39.2594 43.056C36.9756 43.056 35.1603 41.2407 35.1603 38.9568C35.1603 36.673 36.9756 34.8577 39.2594 34.8577C41.5433 34.8577 43.3586 36.7315 43.3586 38.9568ZM39.2594 3.00082C41.5433 3.00082 43.3586 4.81609 43.3586 7.09994C43.3586 9.38379 41.5433 11.1991 39.2594 11.1991C36.9756 11.1991 35.1603 9.38379 35.1603 7.09994C35.1603 4.81609 36.9756 3.00082 39.2594 3.00082ZM12.9073 7.80256H32.8178C33.1691 10.6133 35.2773 12.8972 38.0297 13.3657V32.632C35.2773 33.159 33.1107 35.3844 32.8178 38.1951L12.9073 38.1956C12.556 35.3848 10.4478 33.1009 7.69545 32.6324V13.4247C10.389 12.8977 12.556 10.6139 12.9073 7.80265V7.80256ZM2.36646 7.09996C2.36646 4.81611 4.18172 3.00084 6.46557 3.00084C8.74943 3.00084 10.5647 4.81611 10.5647 7.09996C10.5647 9.38381 8.74943 11.1991 6.46557 11.1991C4.18172 11.1991 2.36646 9.32536 2.36646 7.09996Z" fill="#1255DF"/>
</svg>
