<svg width="45" height="43" viewBox="0 0 45 43" fill="none" xmlns="http://www.w3.org/2000/svg">
<path d="M35.9349 16.3419C36.0815 15.511 36.1793 14.6802 36.1793 13.8493C36.1793 6.51795 30.2165 0.604004 22.934 0.604004C15.6517 0.604004 9.63984 6.51813 9.63984 13.8493C9.63984 14.6314 9.6886 15.3644 9.8352 16.1465C4.4587 17.8573 0.548828 22.8914 0.548828 28.8052C0.548828 36.1366 6.51165 42.0505 13.7941 42.0505C17.1175 42.0505 20.1967 40.8286 22.5429 38.7759C24.8888 40.8286 27.9193 42.0505 31.2916 42.0505C38.6229 42.0505 44.5369 36.0877 44.5369 28.8052C44.5372 23.0868 40.969 18.248 35.9349 16.3419ZM24.2047 34.377L22.3473 36.5276C22.2007 36.3322 22.0541 36.1853 21.9075 35.9899L25.1334 32.3243C24.889 33.0573 24.5958 33.7414 24.2047 34.377ZM25.4266 31.1023L21.5165 35.5009C21.3699 35.3056 21.2233 35.1099 21.1254 34.8655L25.622 29.7826C25.5732 30.2224 25.5241 30.6622 25.4266 31.1023ZM11.5459 17.1239C11.7413 17.0751 11.8882 17.0751 12.0836 17.026L11.6925 17.4658C11.6434 17.368 11.5947 17.2705 11.5459 17.1239ZM12.9144 16.9282C13.2076 16.8794 13.5008 16.8794 13.8432 16.8794H13.8919L12.1811 18.8343C12.0832 18.5898 11.9857 18.3454 11.8879 18.1013L12.9144 16.9282ZM14.6249 16.9282C14.9181 16.9282 15.2113 16.9769 15.5045 17.026L12.8163 20.0562C12.6697 19.8609 12.5718 19.6164 12.4252 19.4207L14.6249 16.9282ZM16.1891 17.1239C16.4336 17.1726 16.7268 17.2217 16.9712 17.3192L13.5987 21.1315C13.4521 20.9362 13.3055 20.7405 13.1589 20.5451L16.1891 17.1239ZM17.5576 17.4658C17.8021 17.5637 18.0465 17.6124 18.2906 17.7103L14.4296 22.0602C14.283 21.9136 14.0873 21.7179 13.9407 21.5226L17.5576 17.4658ZM18.8283 18.0035C19.0728 18.1013 19.2681 18.1988 19.4638 18.3458L15.3583 22.9889C15.163 22.8423 15.016 22.6957 14.8207 22.5L18.8283 18.0035ZM20.0014 18.5899C20.1968 18.7365 20.3925 18.8343 20.5878 18.9809L16.4332 23.7219C16.2379 23.5753 16.0422 23.4774 15.8468 23.3308L20.0014 18.5899ZM21.0276 19.3232C21.1742 19.4211 21.3208 19.5677 21.5165 19.7143C20.9789 20.3498 20.49 20.9849 20.0502 21.7183L17.6552 24.4552C17.4107 24.3086 17.1663 24.2108 16.9222 24.0642L21.0276 19.3232ZM26.013 23.5265L31.7805 16.9773C32.0737 16.9773 32.3669 17.026 32.6601 17.0751L26.3062 24.2598C26.2087 24.0151 26.1109 23.771 26.013 23.5265ZM25.7686 22.9401C25.6707 22.6957 25.5241 22.5003 25.4263 22.2559L30.021 17.026C30.3633 16.9773 30.7053 16.9773 30.9984 16.9773L25.7686 22.9401ZM25.0843 21.767C24.9377 21.5717 24.8399 21.376 24.6933 21.1806L27.9679 17.4662C28.359 17.3683 28.75 17.2708 29.1898 17.173L25.0843 21.767ZM24.3513 20.6918C24.2047 20.4964 24.0581 20.3007 23.9115 20.1541L25.2313 18.6877C25.7689 18.3455 26.3065 18.1013 26.8929 17.8569L24.3513 20.6918ZM19.6104 26.7034C19.9036 26.8012 20.2459 26.85 20.5878 26.8987L19.4147 28.2185C19.4638 27.6808 19.5126 27.1922 19.6104 26.7034ZM19.4147 29.0497L21.2721 26.9969C21.5653 27.0456 21.8585 27.0456 22.1517 27.0947L19.5125 30.0761C19.4638 29.7338 19.4147 29.3916 19.4147 29.0497ZM18.9749 23.7711C18.8283 24.1134 18.6817 24.5041 18.5839 24.8464C18.4373 24.7976 18.3394 24.7485 18.1928 24.6998L18.9749 23.7711ZM22.885 27.0945C23.2273 27.0945 23.5693 27.0945 23.8625 27.0457L19.8058 31.6401C19.7079 31.3469 19.6592 31.0537 19.6104 30.7605L22.885 27.0945ZM24.6933 26.9479C24.9378 26.8991 25.231 26.8991 25.4754 26.85C25.4754 26.9479 25.5242 27.0454 25.5242 27.0945L20.2459 33.0573C20.148 32.8128 20.0505 32.5684 19.9527 32.2752L24.6933 26.9479ZM25.6221 27.8766C25.6708 28.1698 25.6708 28.463 25.6708 28.7562V28.9028L20.8321 34.328C20.7342 34.0835 20.5876 33.8882 20.4898 33.6437L25.6221 27.8766ZM33.3444 17.1728C33.5889 17.2216 33.8821 17.2707 34.1265 17.3682L27.5773 24.7486C27.235 24.8952 26.893 25.0418 26.5507 25.1396C26.5507 25.0418 26.502 24.993 26.502 24.8952L33.3444 17.1728ZM33.6376 18.737C32.6602 20.9363 30.9985 22.7937 28.9945 24.0156L33.6376 18.737ZM22.885 2.02155C29.3854 2.02155 34.7129 7.34891 34.7129 13.8495C34.7129 14.5337 34.6641 15.2667 34.5175 15.9022C33.491 15.6578 32.3669 15.5112 31.2429 15.5112C27.9195 15.5112 24.8403 16.7331 22.4941 18.7858C20.2457 16.7334 17.1664 15.5115 13.8427 15.5115C12.9631 15.5115 12.0832 15.6094 11.2523 15.756C11.1057 15.1205 11.0569 14.4853 11.0569 13.8498C11.0569 7.30024 16.3844 2.02155 22.885 2.02155ZM13.843 40.5844C7.29375 40.5844 2.0151 35.3059 2.0151 28.7565C2.0151 23.5267 5.4363 19.0791 10.1773 17.5151C11.3504 21.5718 14.3806 24.7977 18.242 26.2639C18.0954 27.0947 17.9975 27.9255 17.9975 28.7564C17.9975 32.2268 19.3173 35.3548 21.5166 37.7495C19.4638 39.5094 16.7757 40.5844 13.843 40.5844ZM31.2916 40.5844C28.3589 40.5844 25.6711 39.5092 23.6179 37.7496C25.8173 35.4037 27.137 32.2266 27.137 28.7565C27.137 27.9744 27.0882 27.2415 26.9416 26.4594C31.0962 25.1396 34.3218 21.865 35.6415 17.7106C40.0401 19.4214 43.1682 23.7222 43.1682 28.7565C43.1194 35.3061 37.7922 40.5844 31.2916 40.5844Z" fill="#1255DF"/>
</svg>
